<svg width="24" height="24" viewBox="0 0 24 24" fill="none" xmlns="http://www.w3.org/2000/svg">
<path fill-rule="evenodd" clip-rule="evenodd" d="M3.91957 4H3.95H19.55H19.5804H19.5805C20.1146 3.99999 20.5604 3.99998 20.9247 4.02974C21.3046 4.06078 21.6612 4.12789 21.9985 4.29973C22.5159 4.56339 22.9366 4.98408 23.2003 5.50153C23.3721 5.83879 23.4392 6.19545 23.4703 6.57533C23.5 6.93956 23.5 7.3854 23.5 7.91955V7.95V15.55V15.5805C23.5 16.1146 23.5 16.5604 23.4703 16.9247C23.4392 17.3046 23.3721 17.6612 23.2003 17.9985C22.9366 18.5159 22.5159 18.9366 21.9985 19.2003C21.6612 19.3721 21.3046 19.4392 20.9247 19.4703C20.5605 19.5 20.1146 19.5 19.5805 19.5H19.5805H19.55H3.95H3.91955H3.91951C3.38538 19.5 2.93955 19.5 2.57533 19.4703C2.19545 19.4392 1.83879 19.3721 1.50153 19.2003C0.984082 18.9366 0.563385 18.5159 0.299733 17.9985C0.127889 17.6612 0.0607782 17.3046 0.0297404 16.9247C-1.84302e-05 16.5604 -9.87336e-06 16.1146 3.78789e-07 15.5805V15.5804V15.55V8.75V7.95V7.91957V7.91955C-9.87336e-06 7.3854 -1.84304e-05 6.93956 0.0297404 6.57533C0.0607782 6.19545 0.127889 5.83879 0.299733 5.50153C0.563385 4.98408 0.984082 4.56339 1.50153 4.29973C1.83879 4.12789 2.19545 4.06078 2.57533 4.02974C2.93956 3.99998 3.3854 3.99999 3.91955 4H3.91957ZM19.75 9.5H1.5V15.55C1.5 16.1224 1.50058 16.5066 1.52476 16.8025C1.54822 17.0896 1.5901 17.2269 1.63624 17.3175C1.75608 17.5527 1.94731 17.7439 2.18251 17.8638C2.27307 17.9099 2.41036 17.9518 2.69748 17.9752C2.99336 17.9994 3.37757 18 3.95 18H19.55C20.1224 18 20.5066 17.9994 20.8025 17.9752C21.0896 17.9518 21.2269 17.9099 21.3175 17.8638C21.5527 17.7439 21.7439 17.5527 21.8638 17.3175C21.9099 17.2269 21.9518 17.0896 21.9752 16.8025C21.9994 16.5066 22 16.1224 22 15.55V7.95C22 7.37757 21.9994 6.99336 21.9752 6.69748C21.9518 6.41036 21.9099 6.27307 21.8638 6.18251C21.7439 5.94731 21.5527 5.75608 21.3175 5.63624C21.2269 5.5901 21.0896 5.54822 20.8025 5.52476C20.5066 5.50058 20.1224 5.5 19.55 5.5H3.95C3.37757 5.5 2.99336 5.50058 2.69748 5.52476C2.41036 5.54822 2.27307 5.5901 2.18251 5.63624C1.94731 5.75608 1.75608 5.94731 1.63624 6.18251C1.5901 6.27307 1.54822 6.41036 1.52476 6.69748C1.50058 6.99336 1.5 7.37757 1.5 7.95V8H19.75C20.1642 8 20.5 8.33579 20.5 8.75C20.5 9.16421 20.1642 9.5 19.75 9.5ZM4.75 14C4.33579 14 4 14.3358 4 14.75C4 15.1642 4.33579 15.5 4.75 15.5H8.75C9.16422 15.5 9.5 15.1642 9.5 14.75C9.5 14.3358 9.16422 14 8.75 14H4.75Z" fill="#012814"/>
</svg>
