<svg width="24" height="24" viewBox="0 0 24 24" fill="none" xmlns="http://www.w3.org/2000/svg">
<path fill-rule="evenodd" clip-rule="evenodd" d="M6.91957 3.59184e-07H6.95H15.75C15.9489 3.59184e-07 16.1397 0.0790191 16.2803 0.219671L20.2803 4.21967C20.421 4.36032 20.5 4.55109 20.5 4.75V19.55V19.5805C20.5 20.1146 20.5 20.5604 20.4703 20.9247C20.4392 21.3046 20.3721 21.6612 20.2003 21.9985C19.9366 22.5159 19.5159 22.9366 18.9985 23.2003C18.6612 23.3721 18.3046 23.4392 17.9247 23.4703C17.5604 23.5 17.1146 23.5 16.5805 23.5H16.55H6.95H6.91955C6.3854 23.5 5.93956 23.5 5.57533 23.4703C5.19545 23.4392 4.83879 23.3721 4.50153 23.2003C3.98408 22.9366 3.56339 22.5159 3.29973 21.9985C3.12789 21.6612 3.06078 21.3046 3.02974 20.9247C2.99998 20.5604 2.99999 20.1146 3 19.5805V19.5804V19.55V3.95V3.91957V3.91955C2.99999 3.3854 2.99998 2.93956 3.02974 2.57533C3.06078 2.19545 3.12789 1.83879 3.29973 1.50153C3.56339 0.984082 3.98408 0.563385 4.50153 0.299734C4.83879 0.12789 5.19545 0.0607785 5.57533 0.0297407C5.93956 -1.77942e-05 6.3854 -9.53551e-06 6.91954 3.59184e-07H6.91957ZM5.69748 1.52476C5.41036 1.54822 5.27307 1.5901 5.18251 1.63624C4.94731 1.75609 4.75608 1.94731 4.63624 2.18251C4.5901 2.27307 4.54822 2.41036 4.52476 2.69748C4.50058 2.99336 4.5 3.37757 4.5 3.95V19.55C4.5 20.1224 4.50058 20.5066 4.52476 20.8025C4.54822 21.0896 4.5901 21.2269 4.63624 21.3175C4.75608 21.5527 4.94731 21.7439 5.18251 21.8638C5.27307 21.9099 5.41036 21.9518 5.69748 21.9752C5.99336 21.9994 6.37757 22 6.95 22H16.55C17.1224 22 17.5066 21.9994 17.8025 21.9752C18.0896 21.9518 18.2269 21.9099 18.3175 21.8638C18.5527 21.7439 18.7439 21.5527 18.8638 21.3175C18.9099 21.2269 18.9518 21.0896 18.9752 20.8025C18.9994 20.5066 19 20.1224 19 19.55V6.5H16.32L16.2951 6.5C16.0506 6.50002 15.826 6.50003 15.638 6.48543C15.4355 6.4697 15.2137 6.43376 14.9925 6.32755C14.6339 6.15535 14.3446 5.86612 14.1725 5.50753C14.0662 5.28635 14.0303 5.06446 14.0146 4.86197C14 4.67396 14 4.44938 14 4.20487L14 4.18V1.5H6.95C6.37757 1.5 5.99336 1.50058 5.69748 1.52476ZM15.5 1.56066L18.9393 5H16.32C16.0424 5 15.877 4.99947 15.7542 4.98993C15.6789 4.98409 15.6471 4.97634 15.6387 4.97387C15.5899 4.94961 15.5504 4.91008 15.5261 4.86128C15.5237 4.85286 15.5159 4.82111 15.5101 4.74581C15.5005 4.623 15.5 4.45762 15.5 4.18V1.56066ZM13.625 10.25C12.9288 10.25 12.2611 10.5266 11.7688 11.0188C11.2766 11.5111 11 12.1788 11 12.875V16.625C11 16.9185 10.8781 17.2129 10.6705 17.4205C10.4629 17.6281 10.1685 17.75 9.875 17.75C9.58146 17.75 9.28707 17.6281 9.07951 17.4205C8.87194 17.2129 8.75 16.9185 8.75 16.625V14.75C8.75 14.3358 8.41421 14 8 14C7.58579 14 7.25 14.3358 7.25 14.75V16.625C7.25 17.3164 7.52997 17.9923 8.01885 18.4812C8.50772 18.97 9.18363 19.25 9.875 19.25C10.5664 19.25 11.2423 18.97 11.7312 18.4812C12.22 17.9923 12.5 17.3164 12.5 16.625V12.875C12.5 12.5766 12.6185 12.2905 12.8295 12.0795C13.0405 11.8685 13.3266 11.75 13.625 11.75C13.9234 11.75 14.2095 11.8685 14.4205 12.0795C14.6315 12.2905 14.75 12.5766 14.75 12.875V15.75C14.75 16.1642 15.0858 16.5 15.5 16.5C15.9142 16.5 16.25 16.1642 16.25 15.75V12.875C16.25 12.1788 15.9734 11.5111 15.4812 11.0188C14.9889 10.5266 14.3212 10.25 13.625 10.25ZM15.5 17C14.8096 17 14.25 17.5596 14.25 18.25C14.25 18.9404 14.8096 19.5 15.5 19.5C16.1903 19.5 16.75 18.9404 16.75 18.25C16.75 17.5596 16.1903 17 15.5 17ZM8 11C7.30964 11 6.75 11.5596 6.75 12.25C6.75 12.9404 7.30964 13.5 8 13.5C8.69036 13.5 9.25 12.9404 9.25 12.25C9.25 11.5596 8.69036 11 8 11Z" fill="#012814"/>
</svg>
