<?xml version="1.0" encoding="UTF-8"?>
<svg version="1.1" xmlns="http://www.w3.org/2000/svg" width="162" height="172">
<path d="M0 0 C7.22059494 4.59492405 14.41425641 9.21191072 21.55859375 13.921875 C22.51016861 14.54854065 23.46174347 15.1752063 24.44215393 15.82086182 C26.43137075 17.13127433 28.42029538 18.44213051 30.40893555 19.75341797 C33.45322723 21.76036818 36.49902664 23.76501579 39.54492188 25.76953125 C41.48707042 27.0493407 43.42913089 28.32928382 45.37109375 29.609375 C46.2783873 30.20627136 47.18568085 30.80316772 48.12046814 31.41815186 C48.96557449 31.97593323 49.81068085 32.5337146 50.68139648 33.10839844 C51.42099106 33.59580505 52.16058563 34.08321167 52.92259216 34.58538818 C54.99730728 35.99816639 57.0042821 37.47816895 59 39 C57.82883955 42.51348136 57.07222406 42.89689753 54.05371094 44.85986328 C53.21483337 45.41118927 52.37595581 45.96251526 51.51165771 46.5305481 C50.59515442 47.12117035 49.67865112 47.7117926 48.734375 48.3203125 C47.78999573 48.9384079 46.84561646 49.5565033 45.87261963 50.19332886 C42.83670853 52.17828038 39.79368398 54.15199246 36.75 56.125 C32.7845635 58.70803772 28.82201095 61.29548139 24.859375 63.8828125 C23.90752319 64.50271057 22.95567139 65.12260864 21.97497559 65.7612915 C15.61413583 69.91270058 9.33947968 74.16361509 3.14160156 78.55419922 C1 80 1 80 0 80 C0 53.6 0 27.2 0 0 Z " fill="#FEFEFE" transform="translate(65,51)"/>
</svg>

